<svg width="16" height="16" viewBox="0 0 16 16" fill="none" xmlns="http://www.w3.org/2000/svg">
<path d="M13.885 9.31041C13.7137 9.31041 13.5494 9.37847 13.4282 9.49962C13.3071 9.62077 13.239 9.78508 13.239 9.95641V13.8844C13.239 14.1032 13.1521 14.3131 12.9974 14.4678C12.8426 14.6225 12.6328 14.7094 12.414 14.7094H2.117C1.8982 14.7094 1.68835 14.6225 1.53364 14.4678C1.37892 14.3131 1.292 14.1032 1.292 13.8844V3.58442C1.292 3.47607 1.31334 3.36879 1.3548 3.2687C1.39626 3.16861 1.45703 3.07766 1.53364 3.00105C1.61025 2.92444 1.70119 2.86367 1.80129 2.82221C1.90138 2.78075 2.00866 2.75941 2.117 2.75941H6.045C6.21646 2.75941 6.3809 2.6913 6.50214 2.57006C6.62339 2.44882 6.6915 2.28438 6.6915 2.11292C6.6915 1.94145 6.62339 1.77701 6.50214 1.65577C6.3809 1.53453 6.21646 1.46642 6.045 1.46642H2.117C1.55509 1.46721 1.01648 1.69105 0.619519 2.08876C0.222562 2.48647 -0.000265379 3.0255 2.37193e-07 3.58741V13.8874C0.000529292 14.4488 0.223708 14.9871 0.620579 15.3841C1.01745 15.7812 1.55561 16.0046 2.117 16.0054H12.417C12.9782 16.0046 13.5162 15.7813 13.9131 15.3845C14.3099 14.9876 14.5332 14.4496 14.534 13.8884V9.95741C14.5341 9.87224 14.5174 9.78789 14.4848 9.7092C14.4522 9.63051 14.4044 9.55904 14.3441 9.49891C14.2838 9.43878 14.2122 9.39117 14.1334 9.35882C14.0546 9.32647 13.9702 9.31002 13.885 9.31041Z" fill="#ADB4D2"/>
<path d="M15.814 3.13142L12.872 0.189418C12.812 0.129369 12.7407 0.0817319 12.6623 0.0492304C12.5839 0.0167289 12.4998 0 12.415 0C12.3301 0 12.246 0.0167289 12.1676 0.0492304C12.0892 0.0817319 12.018 0.129369 11.958 0.189418L4.60197 7.54442C4.48094 7.66571 4.41296 7.83007 4.41296 8.00142V10.9434C4.41296 11.1147 4.48102 11.2791 4.60217 11.4002C4.72332 11.5214 4.88765 11.5894 5.05898 11.5894H8.00098C8.08583 11.5895 8.16986 11.5728 8.24828 11.5404C8.32669 11.508 8.39793 11.4604 8.45796 11.4004L15.813 4.04542C15.873 3.98542 15.9207 3.91418 15.9532 3.83577C15.9857 3.75735 16.0024 3.6733 16.0024 3.58842C16.0024 3.50353 15.9857 3.41948 15.9532 3.34107C15.9207 3.26265 15.874 3.19141 15.814 3.13142ZM7.73396 10.2974H5.70596V8.26842L12.415 1.55942L14.443 3.58742L7.73396 10.2974Z" fill="#ADB4D2"/>
</svg>
