<svg width="13" height="13" viewBox="0 0 13 13" fill="none" xmlns="http://www.w3.org/2000/svg">
<path d="M6.01501 6.58468e-05C5.95032 -0.00099268 5.88606 0.0107204 5.8259 0.0345344C5.76573 0.0583485 5.71086 0.0937957 5.66441 0.138847C5.61797 0.183897 5.58087 0.237667 5.55524 0.297076C5.5296 0.356486 5.51593 0.420368 5.51501 0.485066V11.5151C5.51501 11.6477 5.5677 11.7749 5.66147 11.8686C5.75524 11.9624 5.88241 12.0151 6.01501 12.0151C6.14762 12.0151 6.27481 11.9624 6.36858 11.8686C6.46234 11.7749 6.51501 11.6477 6.51501 11.5151V0.485066C6.5141 0.420368 6.50044 0.356486 6.47481 0.297076C6.44917 0.237667 6.41208 0.183897 6.36563 0.138847C6.31919 0.0937957 6.26431 0.0583485 6.20415 0.0345344C6.14398 0.0107204 6.07971 -0.00099268 6.01501 6.58468e-05Z" fill="#ADB4D2"/>
<path d="M11.53 5.50206H0.5C0.367392 5.50206 0.240215 5.55475 0.146447 5.64851C0.0526784 5.74228 0 5.86945 0 6.00206C0 6.13467 0.0526784 6.26185 0.146447 6.35562C0.240215 6.44939 0.367392 6.50206 0.5 6.50206H11.53C11.6626 6.50206 11.7898 6.44939 11.8836 6.35562C11.9773 6.26185 12.03 6.13467 12.03 6.00206C12.03 5.86945 11.9773 5.74228 11.8836 5.64851C11.7898 5.55475 11.6626 5.50206 11.53 5.50206Z" fill="#ADB4D2"/>
</svg>
