<svg width="15" height="16" viewBox="0 0 15 16" fill="none" xmlns="http://www.w3.org/2000/svg">
<path d="M13.8093 2.936H10.8093V2.128C10.8093 1.56431 10.5856 1.02365 10.1874 0.624689C9.78922 0.225727 9.24898 0.00105956 8.6853 0H5.75729C5.19395 0.00158837 4.65423 0.226489 4.25645 0.625394C3.85867 1.0243 3.63529 1.56466 3.63529 2.128V2.936H0.635295C0.464566 2.94264 0.303043 3.01514 0.184601 3.13828C0.0661587 3.26142 0 3.42564 0 3.5965C0 3.76736 0.0661587 3.93158 0.184601 4.05472C0.303043 4.17786 0.464566 4.25036 0.635295 4.257H1.43529V13.867C1.43503 14.4307 1.65842 14.9715 2.05645 15.3706C2.45447 15.7698 2.99461 15.9947 3.5583 15.996H10.8773C11.1567 15.9959 11.4334 15.9407 11.6916 15.8336C11.9497 15.7266 12.1842 15.5697 12.3817 15.372C12.5792 15.1743 12.7359 14.9397 12.8427 14.6814C12.9495 14.4232 13.0044 14.1465 13.0043 13.867V4.257H13.8043C13.975 4.25036 14.1365 4.17786 14.255 4.05472C14.3734 3.93158 14.4396 3.76736 14.4396 3.5965C14.4396 3.42564 14.3734 3.26142 14.255 3.13828C14.1365 3.01514 13.975 2.94264 13.8043 2.936H13.8093ZM4.9523 2.128C4.95229 1.91432 5.03704 1.70936 5.18795 1.55807C5.33886 1.40679 5.54361 1.32153 5.75729 1.321H8.6853C8.89898 1.32153 9.10373 1.40679 9.25464 1.55807C9.40555 1.70936 9.4903 1.91432 9.4903 2.128V2.936H4.9523V2.128ZM11.6863 13.867C11.6866 14.0809 11.6019 14.2861 11.451 14.4376C11.3001 14.5891 11.0952 14.6745 10.8813 14.675H3.56229C3.34852 14.6742 3.14377 14.5887 2.99289 14.4373C2.84201 14.2858 2.75729 14.0808 2.75729 13.867V4.257H11.6873L11.6863 13.867Z" fill="#ADB4D2"/>
<path d="M5.75829 12.324C5.93299 12.3237 6.10045 12.2542 6.22398 12.1307C6.34751 12.0072 6.41703 11.8397 6.41729 11.665V7.274C6.42075 7.18537 6.40627 7.09694 6.37474 7.01404C6.3432 6.93113 6.29525 6.85545 6.23376 6.79152C6.17228 6.72758 6.09851 6.67672 6.0169 6.64198C5.93528 6.60724 5.84749 6.58933 5.75879 6.58933C5.67009 6.58933 5.5823 6.60724 5.50069 6.64198C5.41907 6.67672 5.34531 6.72758 5.28382 6.79152C5.22233 6.85545 5.17438 6.93113 5.14285 7.01404C5.11131 7.09694 5.09684 7.18537 5.10029 7.274V11.666C5.10056 11.8404 5.16997 12.0076 5.29331 12.131C5.41665 12.2543 5.58386 12.3237 5.75829 12.324Z" fill="#ADB4D2"/>
<path d="M8.6853 12.324C8.85999 12.3237 9.02746 12.2542 9.15099 12.1307C9.27452 12.0072 9.34403 11.8397 9.34429 11.665V7.274C9.34775 7.18537 9.33328 7.09694 9.30174 7.01404C9.2702 6.93113 9.22225 6.85545 9.16076 6.79152C9.09928 6.72758 9.02552 6.67672 8.9439 6.64198C8.86229 6.60724 8.7745 6.58933 8.6858 6.58933C8.59709 6.58933 8.5093 6.60724 8.42769 6.64198C8.34607 6.67672 8.27231 6.72758 8.21082 6.79152C8.14934 6.85545 8.10139 6.93113 8.06985 7.01404C8.03832 7.09694 8.02384 7.18537 8.02729 7.274V11.666C8.02782 11.8404 8.09732 12.0074 8.2206 12.1307C8.34389 12.254 8.51095 12.3235 8.6853 12.324Z" fill="#ADB4D2"/>
</svg>
